<svg width="32" height="32" viewBox="0 0 32 32" fill="none" xmlns="http://www.w3.org/2000/svg">
  <defs>
    <linearGradient id="brandGradient" x1="4" y1="4" x2="28" y2="28">
      <stop offset="0%" stop-color="#D85F3C" />
      <stop offset="100%" stop-color="#548B5A" />
    </linearGradient>
  </defs>
  <path d="M16 28.5C16 28.5 4 19.5 4 11.5C4 5.5 11 3.5 16 8.5C21 3.5 28 5.5 28 11.5C28 19.5 16 28.5 16 28.5Z" fill="#FAF8F5" />
  <path d="M16 28.5C11 24.5 4 18.5 4 11.5C4 7.5 7 4.5 11 4.5C13 4.5 15 5.5 16 8.5C17 5.5 19 4.5 21 4.5C25 4.5 28 7.5 28 11.5C28 18.5 21 24.5 16 28.5Z" stroke="url(#brandGradient)" stroke-width="2.5" stroke-linecap="round" stroke-linejoin="round" />
</svg>
